HIERARCHY
ROOT Hips
{
 OFFSET 0.000000 0.000000 0.000000
 CHANNELS 6 Xposition Yposition Zposition Yrotation Xrotation Zrotation
 JOINT Chest
 {
  OFFSET 0.000000 9.585900 0.002600
  CHANNELS 3 Yrotation Xrotation Zrotation
  JOINT Chest2
  {
   OFFSET 0.000000 9.601200 -0.005300
   CHANNELS 3 Yrotation Xrotation Zrotation
   JOINT Chest3
   {
    OFFSET 0.000000 9.561800 0.000000
    CHANNELS 3 Yrotation Xrotation Zrotation
    JOINT Chest4
    {
     OFFSET 0.000000 9.552100 0.000000
     CHANNELS 3 Yrotation Xrotation Zrotation
     JOINT Neck
     {
      OFFSET 0.000000 14.453000 0.000000
      CHANNELS 3 Yrotation Xrotation Zrotation
      JOINT Head
      {
       OFFSET 0.000000 8.936500 -0.011300
       CHANNELS 3 Yrotation Xrotation Zrotation
       End Site
       {
        OFFSET 0.000000 17.073600 -0.006000
       }
      }
     }
     JOINT RightCollar
     {
      OFFSET -2.921100 9.558500 0.000000
      CHANNELS 3 Yrotation Xrotation Zrotation
      JOINT RightShoulder
      {
       OFFSET -13.519700 0.000000 0.000000
       CHANNELS 3 Yrotation Xrotation Zrotation
       JOINT RightElbow
       {
        OFFSET 0.000000 -29.696600 0.000000
        CHANNELS 3 Yrotation Xrotation Zrotation
        JOINT RightWrist
        {
         OFFSET 0.000000 -24.004700 0.000000
         CHANNELS 3 Yrotation Xrotation Zrotation
         End Site
         {
          OFFSET 0.000000 -17.728500 0.000000
         }
        }
       }
      }
     }
     JOINT LeftCollar
     {
      OFFSET 2.921100 9.558500 0.000000
      CHANNELS 3 Yrotation Xrotation Zrotation
      JOINT LeftShoulder
      {
       OFFSET 13.519700 0.000000 0.000000
       CHANNELS 3 Yrotation Xrotation Zrotation
       JOINT LeftElbow
       {
        OFFSET 0.000000 -29.696600 0.000000
        CHANNELS 3 Yrotation Xrotation Zrotation
        JOINT LeftWrist
        {
         OFFSET 0.000000 -24.004700 0.000000
         CHANNELS 3 Yrotation Xrotation Zrotation
         End Site
         {
          OFFSET 0.000000 -17.728500 0.000000
         }
        }
       }
      }
     }
    }
   }
  }
 }
 JOINT RightHip
 {
  OFFSET -7.771700 -0.012900 -0.001300
  CHANNELS 3 Yrotation Xrotation Zrotation
  JOINT RightKnee
  {
   OFFSET 0.000000 -40.869800 0.001200
   CHANNELS 3 Yrotation Xrotation Zrotation
   JOINT RightAnkle
   {
    OFFSET 0.000000 -39.717900 0.002100
    CHANNELS 3 Yrotation Xrotation Zrotation
    JOINT RightToe
    {
     OFFSET 0.000000 -4.965400 11.033500
     CHANNELS 3 Yrotation Xrotation Zrotation
     End Site
     {
      OFFSET 0.000000 -1.423100 5.872300
     }
    }
   }
  }
 }
 JOINT LeftHip
 {
  OFFSET 7.771700 -0.012900 -0.001300
  CHANNELS 3 Yrotation Xrotation Zrotation
  JOINT LeftKnee
  {
   OFFSET 0.000000 -40.869800 0.001200
   CHANNELS 3 Yrotation Xrotation Zrotation
   JOINT LeftAnkle
   {
    OFFSET 0.000000 -39.717900 0.002100
    CHANNELS 3 Yrotation Xrotation Zrotation
    JOINT LeftToe
    {
     OFFSET 0.000000 -4.965400 11.033500
     CHANNELS 3 Yrotation Xrotation Zrotation
     End Site
     {
      OFFSET 0.000000 -1.423100 5.872300
     }
    }
   }
  }
 }
}
MOTION
Frames: 8
Frame Time: 0.008333
0.000000 85.388000 0.000000 0.000000 -5.767877 0.000000 0.000000 11.653817 0.000000 0.000000 -5.885947 0.000000 0.000000 -0.000000 0.000000 0.000000 -0.000000 0.000000 0.000000 12.528835 0.000000 0.000000 0.711642 0.000000 0.000000 -0.000000 0.000000 0.000000 0.000000 -90.000000 0.000000 -2.309062 0.000000 0.000000 2.309062 0.000000 0.000000 -0.000000 0.000000 0.000000 -0.000000 90.000000 0.000000 -2.309062 0.000000 0.000000 2.309062 0.000000 0.000000 8.520406 0.000000 0.000000 1.905762 0.000000 -0.000000 -4.658285 0.000000 0.000000 -0.000000 0.000000 0.000000 8.520406 0.000000 0.000000 1.905762 0.000000 -0.000000 -4.658285 0.000000 0.000000 -0.000000 0.000000
-5.767587 55.429529 28.241306 178.010067 -26.879118 -9.065033 0.307269 13.367263 5.577218 0.181608 7.764316 2.612035 0.292946 9.727436 3.283051 0.184738 7.774983 2.614840 4.152734 22.645201 -2.276193 5.035502 -1.262808 -3.382033 0.337418 3.756964 -2.572152 -12.892566 -7.542627 5.404004 107.494230 -84.105512 -90.473824 10.161663 -6.723187 -15.886707 -10.818102 4.464457 -3.458563 4.147785 -4.666409 -2.484705 -112.068426 -78.250806 119.077703 8.649635 -7.995580 -5.625539 -18.773245 -38.434434 7.320136 64.602528 87.836578 61.718978 1.722363 -19.531902 -0.766100 -0.021899 0.553362 0.000759 -14.284793 -50.872120 16.274651 174.017217 79.928585 169.387256 -2.317675 -17.462628 1.946590 -0.093238 -1.006525 -0.054045
-5.775874 55.432176 28.240696 178.011484 -26.902890 -9.069075 0.314153 13.390809 5.584346 0.183380 7.774290 2.613071 0.294018 9.741191 3.284843 0.186946 7.785477 2.616305 4.149742 22.626962 -2.252593 5.009509 -1.308330 -3.371813 0.320683 3.766226 -2.576914 -12.877536 -7.516829 5.431271 106.542551 -84.158455 -89.511293 10.160178 -6.639650 -16.159824 -10.830945 4.487600 -3.441929 4.129202 -4.629531 -2.507418 -112.065718 -78.253972 119.103089 8.598471 -7.990370 -5.628823 -18.742297 -38.411087 7.307433 64.277029 87.843617 61.395011 1.713189 -19.524024 -0.749610 -0.021338 0.551097 0.002188 -14.270586 -50.851355 16.245368 174.027967 79.927032 169.403283 -2.295604 -17.459513 1.957893 -0.093109 -1.011610 -0.064141
-5.786090 55.433369 28.241399 178.010307 -26.913168 -9.069314 0.317291 13.401928 5.587320 0.187412 7.784027 2.614048 0.291900 9.753983 3.285571 0.188861 7.787355 2.616324 4.143786 22.604012 -2.247307 4.997610 -1.329971 -3.360922 0.311330 3.777414 -2.577812 -12.833599 -7.447392 5.483755 105.817634 -84.150047 -88.808225 10.159168 -6.533976 -16.426896 -10.838894 4.509693 -3.426525 4.102310 -4.527242 -2.539094 -112.279912 -78.226100 119.357554 8.544901 -7.969626 -5.660905 -18.676449 -38.407533 7.287043 63.806471 87.861381 60.943027 1.690042 -19.516710 -0.717917 -0.017510 0.550003 0.004374 -14.255651 -50.845033 16.207840 174.102791 79.928734 169.488808 -2.252424 -17.465732 1.952681 -0.091905 -1.006480 -0.063787
-5.797497 55.434114 28.240430 178.010038 -26.926062 -9.069101 0.319440 13.415179 5.588074 0.188237 7.795503 2.616837 0.289148 9.763375 3.283666 0.192232 7.774536 2.615204 4.107593 22.585590 -2.204861 4.979429 -1.381065 -3.352744 0.309547 3.795775 -2.573412 -12.823721 -7.453725 5.499411 104.709191 -84.169115 -87.710042 10.144710 -6.390506 -16.645692 -10.843071 4.531405 -3.417685 4.093143 -4.459827 -2.562900 -112.295936 -78.227077 119.389358 8.487224 -7.934021 -5.720675 -18.654667 -38.397883 7.286911 63.529256 87.873899 60.650861 1.669783 -19.509993 -0.687375 -0.019337 0.548147 0.003823 -14.246202 -50.837706 16.177025 174.048140 79.920969 169.438395 -2.238513 -17.465196 1.949853 -0.090279 -1.010159 -0.060032
-5.809610 55.433578 28.238579 178.012765 -26.932976 -9.070446 0.316986 13.429045 5.590039 0.187904 7.802757 2.616139 0.289452 9.759468 3.282322 0.190590 7.794953 2.615388 4.086860 22.543852 -2.185688 4.941030 -1.436759 -3.313095 0.317636 3.781839 -2.564763 -12.796660 -7.430326 5.541706 103.701584 -84.148165 -86.742965 10.138747 -6.260605 -16.805498 -10.838907 4.510957 -3.411302 4.088615 -4.403992 -2.576862 -112.207860 -78.250224 119.308371 8.419643 -7.884574 -5.793136 -18.637970 -38.394271 7.286408 63.309140 87.887603 60.420316 1.644142 -19.504970 -0.658521 -0.020515 0.546292 0.003806 -14.249056 -50.835628 16.152662 173.986350 79.910193 169.375712 -2.223333 -17.466645 1.951839 -0.087743 -1.013323 -0.060487
-5.822539 55.431619 28.235290 178.015296 -26.936078 -9.069232 0.321495 13.441948 5.590158 0.180710 7.802887 2.615897 0.288719 9.757295 3.281724 0.185382 7.807342 2.615903 4.070239 22.509948 -2.165527 4.910477 -1.474329 -3.284867 0.329531 3.769150 -2.556299 -12.757968 -7.406781 5.586163 102.679143 -84.134684 -85.778520 10.134212 -6.150986 -16.906612 -10.845201 4.520111 -3.404045 4.100157 -4.382401 -2.596911 -112.078834 -78.282450 119.182157 8.344137 -7.822009 -5.873418 -18.602916 -38.397899 7.292329 62.994483 87.915178 60.087068 1.610729 -19.502373 -0.605472 -0.023025 0.542638 0.002476 -14.252840 -50.835430 16.131222 173.963153 79.899692 169.346096 -2.211103 -17.476677 1.956355 -0.083373 -1.009776 -0.052743
-5.835060 55.428289 28.230707 178.021869 -26.934094 -9.073308 0.326369 13.445346 5.595094 0.179467 7.810890 2.616937 0.281110 9.757242 3.280918 0.187924 7.817956 2.621095 4.049382 22.474521 -2.154228 4.871085 -1.512594 -3.247604 0.328787 3.746327 -2.557316 -12.711369 -7.390596 5.628411 101.630927 -84.150732 -84.798263 10.130710 -6.068221 -16.955990 -10.851801 4.516888 -3.403375 4.107510 -4.369391 -2.612889 -111.873618 -78.317205 118.972760 8.265644 -7.746670 -5.964850 -18.578507 -38.405010 7.287036 62.874676 87.935817 59.963419 1.602101 -19.502384 -0.574382 -0.020801 0.539297 0.003095 -14.267517 -50.841344 16.116617 173.950658 79.885085 169.328536 -2.198462 -17.484037 1.969060 -0.081006 -1.010792 -0.059036
